<?xml version="1.0" encoding="UTF-8"?>
<!DOCTYPE svg PUBLIC "-//W3C//DTD SVG 1.1//EN" "http://www.w3.org/Graphics/SVG/1.1/DTD/svg11.dtd">
<!-- Creator: CorelDRAW X7 -->
<svg xmlns="http://www.w3.org/2000/svg" xml:space="preserve" width="50mm" height="22mm" version="1.1" style="shape-rendering:geometricPrecision; text-rendering:geometricPrecision; image-rendering:optimizeQuality; fill-rule:evenodd; clip-rule:evenodd"
viewBox="0 0 5000 2200"
 xmlns:xlink="http://www.w3.org/1999/xlink">
 <defs>
  <style type="text/css">
   <![CDATA[
    .fil0 {fill:#162556}
    .fil1 {fill:#F4AC02}
   ]]>
  </style>
 </defs>
 <g id="Capa_x0020_1">
  <metadata id="CorelCorpID_0Corel-Layer"/>
  <g id="_2972548718688">
   <path class="fil0" d="M4307 1636l-244 2c-47,128 -32,164 -195,179 -118,10 -260,-9 -280,-110 -63,-310 255,-244 479,-292 287,-63 283,-383 237,-516 -67,-191 -341,-233 -573,-217 -255,18 -415,96 -416,351 0,132 -14,679 14,764 104,306 1021,359 978,-161zm-721 -338c59,-74 262,-38 371,-68 134,-38 169,-229 78,-303 -25,-20 -566,-239 -449,371z"/>
   <path class="fil0" d="M291 1062l246 -1c18,-136 49,-169 194,-179 121,-8 255,10 276,115 83,405 -548,136 -696,446 -39,81 -50,254 -22,350 77,266 643,279 862,143 94,-58 128,-129 130,-269 1,-139 16,-682 -18,-773 -108,-292 -1029,-352 -972,168zm722 544l0 -200c-154,75 -591,-10 -492,303 42,134 489,218 492,-103z"/>
   <path class="fil0" d="M1462 1993c104,16 198,-42 238,-112 56,-101 33,-557 33,-697 -1,-137 -28,-227 96,-273 96,-35 244,-28 318,19 75,49 49,223 49,330 0,245 -5,494 0,738l270 1c6,-300 -1,-605 0,-905 2,-316 -136,-414 -498,-415 -141,0 -272,18 -378,82 -113,70 -129,139 -129,317 1,303 -8,614 1,915z"/>
   <path class="fil0" d="M2688 680l-177 0 2 198 182 2c-4,258 -12,560 0,816 12,254 264,297 516,305l0 -212c-279,0 -246,-95 -246,-333 0,-191 2,-383 1,-573l240 -4 8 -200 -244 0 -5 -326c-317,18 -264,256 -277,327z"/>
   <path class="fil0" d="M4458 1997l268 3 0 -1644c-354,7 -268,296 -268,677 0,319 8,646 0,964z"/>
   <path class="fil1" d="M1279 639c70,-16 36,-56 223,-85 94,-15 174,-23 251,-67 40,-24 52,-34 64,-89 40,-190 -93,-226 -271,-225 -107,0 -213,7 -252,110 -27,70 -18,266 -15,356z"/>
  </g>
 </g>
</svg>
