<?xml version="1.0" encoding="UTF-8"?>
<!DOCTYPE svg PUBLIC "-//W3C//DTD SVG 1.1//EN" "http://www.w3.org/Graphics/SVG/1.1/DTD/svg11.dtd">
<!-- Creator: CorelDRAW X7 -->
<svg xmlns="http://www.w3.org/2000/svg" xml:space="preserve" width="20mm" height="20mm" version="1.1" style="shape-rendering:geometricPrecision; text-rendering:geometricPrecision; image-rendering:optimizeQuality; fill-rule:evenodd; clip-rule:evenodd"
viewBox="0 0 2000 2000"
 xmlns:xlink="http://www.w3.org/1999/xlink">
 <defs>
  <style type="text/css">
   <![CDATA[
    .fil0 {fill:#FEFEFE}
   ]]>
  </style>
 </defs>
 <g id="Capa_x0020_1">
  <metadata id="CorelCorpID_0Corel-Layer"/>
  <path class="fil0" d="M871 192c-433,65 -746,434 -681,941 131,1024 1792,874 1616,-279 -64,-413 -451,-734 -935,-662zm-2 883l-2 530c25,24 -45,19 52,22 66,0 119,9 178,-14l6 -532c72,2 130,13 182,-20l25 -209 -213 -5c-6,-156 -19,-222 95,-231 33,-3 84,1 121,0l-2 -224c-438,-16 -427,136 -444,457l-167 0c-27,20 -11,-3 -19,37l5 181 183 8z"/>
 </g>
</svg>
