<?xml version="1.0" encoding="UTF-8"?>
<!DOCTYPE svg PUBLIC "-//W3C//DTD SVG 1.1//EN" "http://www.w3.org/Graphics/SVG/1.1/DTD/svg11.dtd">
<!-- Creator: CorelDRAW X7 -->
<svg xmlns="http://www.w3.org/2000/svg" xml:space="preserve" width="20mm" height="20mm" version="1.1" style="shape-rendering:geometricPrecision; text-rendering:geometricPrecision; image-rendering:optimizeQuality; fill-rule:evenodd; clip-rule:evenodd"
viewBox="0 0 2000 2000"
 xmlns:xlink="http://www.w3.org/1999/xlink">
 <defs>
  <style type="text/css">
   <![CDATA[
    .fil0 {fill:#1A1A1A}
   ]]>
  </style>
 </defs>
 <g id="Capa_x0020_1">
  <metadata id="CorelCorpID_0Corel-Layer"/>
  <g id="_2972782205232">
   <path class="fil0" d="M685 459c80,-24 452,-22 555,-14 166,11 275,113 319,243 26,78 26,447 15,546 -16,153 -129,269 -255,304 -78,21 -461,19 -562,12 -157,-10 -277,-114 -318,-239 -28,-85 -26,-440 -16,-544 18,-173 118,-264 262,-308zm-499 623c42,421 430,785 896,734 431,-46 772,-417 733,-901 -62,-775 -1125,-1023 -1521,-329 -86,151 -126,307 -108,496z"/>
   <path class="fil0" d="M933 689c182,-46 335,82 372,222 50,185 -74,355 -220,394 -407,108 -585,-507 -152,-616zm388 60c-75,2 -104,-61 -55,-109 24,-23 68,-24 94,3 31,32 28,104 -39,106zm-606 -215c-138,38 -207,135 -213,275 -5,92 -8,402 13,471 37,118 135,186 286,190 322,7 679,71 695,-281 15,-323 56,-661 -301,-665 -102,-2 -404,-11 -480,10z"/>
   <path class="fil0" d="M765 1037c41,289 507,244 469,-72 -36,-291 -515,-257 -469,72z"/>
  </g>
 </g>
</svg>
