<?xml version="1.0" encoding="UTF-8"?>
<!DOCTYPE svg PUBLIC "-//W3C//DTD SVG 1.1//EN" "http://www.w3.org/Graphics/SVG/1.1/DTD/svg11.dtd">
<!-- Creator: CorelDRAW X7 -->
<svg xmlns="http://www.w3.org/2000/svg" xml:space="preserve" width="15mm" height="11mm" version="1.1" style="shape-rendering:geometricPrecision; text-rendering:geometricPrecision; image-rendering:optimizeQuality; fill-rule:evenodd; clip-rule:evenodd"
viewBox="0 0 1500 1100"
 xmlns:xlink="http://www.w3.org/1999/xlink">
 <defs>
  <style type="text/css">
   <![CDATA[
    .fil0 {fill:white}
   ]]>
  </style>
 </defs>
 <g id="Capa_x0020_1">
  <metadata id="CorelCorpID_0Corel-Layer"/>
  <g id="_2972782201520">
   <path class="fil0" d="M43 544c0,58 41,94 80,94l1254 0c38,0 80,-41 80,-80 0,-28 -3,-48 -26,-71 -12,-13 -33,-25 -57,-25l-1248 0c-42,0 -83,40 -83,82z"/>
   <path class="fil0" d="M43 103c0,57 41,94 80,94l1254 0c20,0 43,-15 54,-26 16,-15 24,-34 26,-53l0 -17c-4,-42 -38,-81 -83,-81l-1248 0c-42,0 -83,40 -83,83z"/>
   <path class="fil0" d="M43 986c0,57 41,94 80,94l1254 0c20,0 43,-15 54,-25 15,-16 24,-35 26,-56l0 -15c-2,-20 -11,-40 -26,-55 -12,-13 -33,-26 -57,-26l-1248 0c-42,0 -83,41 -83,83z"/>
  </g>
 </g>
</svg>
