<?xml version="1.0" encoding="UTF-8"?>
<!DOCTYPE svg PUBLIC "-//W3C//DTD SVG 1.1//EN" "http://www.w3.org/Graphics/SVG/1.1/DTD/svg11.dtd">
<!-- Creator: CorelDRAW X7 -->
<svg xmlns="http://www.w3.org/2000/svg" xml:space="preserve" width="5mm" height="7mm" version="1.1" style="shape-rendering:geometricPrecision; text-rendering:geometricPrecision; image-rendering:optimizeQuality; fill-rule:evenodd; clip-rule:evenodd"
viewBox="0 0 500 700"
 xmlns:xlink="http://www.w3.org/1999/xlink">
 <defs>
  <style type="text/css">
   <![CDATA[
    .fil0 {fill:black}
   ]]>
  </style>
 </defs>
 <g id="Capa_x0020_1">
  <metadata id="CorelCorpID_0Corel-Layer"/>
  <path class="fil0" d="M185 269c0,-38 29,-67 65,-67 36,0 65,29 65,67 0,35 -29,65 -65,65 -36,0 -65,-29 -65,-65zm64 304l2 0c1,-4 2,-3 5,-6l50 -73c32,-50 78,-144 83,-208 1,-22 1,-38 -5,-60 -4,-12 -9,-21 -14,-32 -3,-5 -6,-9 -9,-13 -23,-30 -64,-54 -104,-54 -33,0 -56,4 -82,21 -9,6 -16,13 -24,20 -26,26 -37,58 -40,95 -1,6 2,34 3,40 5,37 19,69 33,102 9,21 36,70 47,87 16,25 32,51 50,74 3,3 4,4 5,7z"/>
 </g>
</svg>
