<?xml version="1.0" encoding="UTF-8"?>
<!DOCTYPE svg PUBLIC "-//W3C//DTD SVG 1.1//EN" "http://www.w3.org/Graphics/SVG/1.1/DTD/svg11.dtd">
<!-- Creator: CorelDRAW X7 -->
<svg xmlns="http://www.w3.org/2000/svg" xml:space="preserve" width="5mm" height="7mm" version="1.1" style="shape-rendering:geometricPrecision; text-rendering:geometricPrecision; image-rendering:optimizeQuality; fill-rule:evenodd; clip-rule:evenodd"
viewBox="0 0 500 700"
 xmlns:xlink="http://www.w3.org/1999/xlink">
 <defs>
  <style type="text/css">
   <![CDATA[
    .fil0 {fill:#AA2A30}
   ]]>
  </style>
 </defs>
 <g id="Capa_x0020_1">
  <metadata id="CorelCorpID_0Corel-Layer"/>
  <path class="fil0" d="M191 276c0,-34 26,-60 59,-60 33,0 59,26 59,60 0,33 -26,59 -59,59 -32,0 -59,-26 -59,-59zm58 277l2 0c1,-3 2,-3 4,-6l46 -66c29,-46 71,-131 75,-189 2,-20 1,-34 -5,-55 -3,-11 -7,-19 -12,-28 -3,-5 -5,-9 -8,-12 -21,-28 -58,-50 -94,-50 -30,0 -52,4 -75,19 -8,6 -15,12 -22,19 -24,23 -34,52 -37,86 0,6 3,31 4,37 4,32 17,62 29,92 8,19 33,64 43,80 15,22 29,45 46,67 2,3 3,3 4,6z"/>
 </g>
</svg>
