<?xml version="1.0" encoding="UTF-8"?>
<!DOCTYPE svg PUBLIC "-//W3C//DTD SVG 1.1//EN" "http://www.w3.org/Graphics/SVG/1.1/DTD/svg11.dtd">
<!-- Creator: CorelDRAW X7 -->
<svg xmlns="http://www.w3.org/2000/svg" xml:space="preserve" width="20mm" height="20mm" version="1.1" style="shape-rendering:geometricPrecision; text-rendering:geometricPrecision; image-rendering:optimizeQuality; fill-rule:evenodd; clip-rule:evenodd"
viewBox="0 0 2000 2000"
 xmlns:xlink="http://www.w3.org/1999/xlink">
 <defs>
  <style type="text/css">
   <![CDATA[
    .fil0 {fill:#1A1A1A}
   ]]>
  </style>
 </defs>
 <g id="Capa_x0020_1">
  <metadata id="CorelCorpID_0Corel-Layer"/>
  <path class="fil0" d="M1000 147c471,0 853,382 853,853 0,471 -382,853 -853,853 -471,0 -853,-382 -853,-853 0,-471 382,-853 853,-853zm-442 848c0,-10 2,-16 1,-26 0,-8 2,-18 3,-25 8,-58 18,-94 43,-145l53 -83c9,-10 16,-18 26,-28 36,-36 79,-69 126,-91 24,-11 51,-21 79,-29 72,-18 151,-19 223,-1 56,14 85,30 131,57 6,4 10,7 16,11 50,35 98,88 128,141 2,3 3,5 5,8 12,21 20,43 29,65 28,72 31,174 12,250 -12,47 -23,73 -46,116 -3,6 -7,10 -10,16 -8,14 -24,35 -34,47 -3,3 -4,4 -7,7 -7,9 -18,20 -26,28 -3,2 -4,4 -7,6l-14 13c-74,63 -176,105 -274,105 -54,0 -86,-3 -136,-17 -16,-5 -32,-10 -47,-17 -24,-10 -41,-18 -63,-32 -12,-7 -9,-5 -23,-2l-153 40c1,-8 44,-159 44,-160 0,-4 -6,-11 -7,-14 -4,-4 -5,-8 -8,-13 -12,-19 -12,-21 -22,-40l-18 -45c-14,-41 -24,-97 -24,-142zm-91 0c0,70 16,150 45,214l21 43c7,12 6,7 4,14 -19,66 -36,137 -56,203l-18 68c5,0 12,-3 17,-4l266 -69c2,0 22,11 26,12 10,4 18,8 28,12 19,8 39,15 59,20 131,36 265,22 385,-38 24,-12 39,-21 62,-37l37 -28c49,-41 89,-87 121,-142 12,-21 23,-42 33,-65 42,-103 52,-219 25,-329l-15 -50c-12,-33 -24,-59 -41,-89 -14,-24 -24,-38 -40,-59 -2,-3 -4,-5 -7,-9l-23 -26c-3,-4 -4,-5 -8,-9l-16 -16c-19,-19 -51,-44 -72,-58l-20 -13c-23,-14 -31,-18 -54,-28 -55,-26 -134,-49 -213,-49 -59,0 -112,5 -165,22 -9,3 -16,5 -25,9l-35 13c-38,16 -110,60 -141,90 -3,4 -5,5 -9,8l-32 33c-5,6 -11,12 -16,18 -19,24 -38,51 -54,78 -4,7 -8,14 -11,21 -4,8 -7,15 -11,23 -30,64 -47,144 -47,217zm664 256c49,0 69,-5 106,-33 10,-7 23,-20 27,-32 5,-14 19,-56 3,-69 -8,-6 -25,-13 -35,-17 -15,-8 -79,-41 -90,-41 -12,0 -16,8 -21,15 -10,15 -24,29 -36,44 -4,5 -7,11 -18,11 -11,0 -54,-23 -64,-29 -39,-21 -72,-52 -99,-86 -7,-9 -35,-47 -35,-58 0,-8 16,-23 24,-33 5,-6 8,-9 12,-16 16,-26 7,-30 -6,-62 -6,-16 -30,-77 -39,-88 -10,-11 -26,-8 -46,-8 -21,0 -30,10 -40,21 -10,9 -21,23 -27,35 -14,29 -22,64 -14,102 10,49 35,85 63,123 4,7 9,12 13,18 3,3 4,5 7,9l51 57 32 29c47,38 75,58 135,81 25,10 70,27 97,27z"/>
 </g>
</svg>
